<svg xmlns="http://www.w3.org/2000/svg" viewBox="0 0 1529.03 512"><defs><style>.cls-1{fill:#1e2f79;}.cls-2{fill:#3f57a0;}.cls-3{fill:#fef156;}.cls-4{fill:#fec242;}.cls-5{fill:#fec7ab;}.cls-6{fill:#feaa7b;}.cls-7{fill:#fdf056;}.cls-8{fill:#ffaa7c;}.cls-9{fill:#f9bf44;}.cls-10{fill:#fcef56;}.cls-11{fill:#ffc242;}.cls-12{fill:#3e569f;}.cls-13{fill:#5071b7;}.cls-14{fill:#4f6fb5;}.cls-15{fill:#1f2f79;}.cls-16{fill:#1f3079;}.cls-17{fill:#fffbb3;}.cls-18{fill:#f7be44;}.cls-19{fill:#f8ec57;}.cls-20{fill:#223178;}.cls-21{fill:#fd8d3e;}.cls-22{fill:#233178;}.cls-23{fill:#fce0d3;}.cls-24{fill:#fd8d3f;}.cls-25{fill:#fdf9b2;}.cls-26{fill:#fdc142;}.cls-27{fill:#fdc043;}.cls-28{fill:#f78b3f;}.cls-29{fill:#e8f7fa;}.cls-30{fill:#e9f7f7;}.cls-31{fill:#aee9f7;}.cls-32{fill:#fa9349;}</style></defs><g id="Capa_2" data-name="Capa 2"><g id="Layer_1" data-name="Layer 1"><path class="cls-1" d="M232.33,511.67c-6,.33-11.67.33-17.83.33-2.62-1.84-5.28-.94-7.67-1.16-23.48-2.18-45.31-10-66.55-19.63a205.36,205.36,0,0,1-32.94-18.59c-1.76-1.23-3.64-2.37-4.82-4.73-.33-3.24,1.82-4.45,3.79-5.64,22.07-13.38,44.44-26.26,66.59-39.51a15.9,15.9,0,0,1,6.45-2.2,19.58,19.58,0,0,0,2.27-.39,13.3,13.3,0,0,1,1.55-.1c11.93,2.56,23.51,4.75,35.36,5.45,18.09,1.06,36.13,2,54.31,1,13-.67,25.48-1.91,37.27-7.72a261.57,261.57,0,0,0,25.72-14.35c26-16.71,50-35.86,73.08-56.39a224,224,0,0,0,17.59-17c8.66-9.63,7-22.92-3.55-28.64-6.7-3.63-13.32-2.36-19.4,1.54-9.82,6.28-18.87,13.67-28.53,20.2-4.41,3-8.62,6.26-13.66,9-1.57.36-2.74.59-4.11-.58A7.36,7.36,0,0,1,356,328c0-16.24-.26-32.49.26-49.15.73-3.28,2.89-4.29,5.42-4.94,16.07-4.14,26.49-14.21,31.48-30a8.25,8.25,0,0,1,3.53-5.1c5.78-1.54,11.28-.81,16.72-.83,7.46,0,14.93-.47,22.78.4,3.31.17,5.21,2.07,7.27,3.75,7,5.73,16.5,5.16,22.36-1.31a16.2,16.2,0,0,0-.13-21.74c-6-6.44-15.21-6.89-22.36-1.06-1.79,1.46-3.44,3.16-6.33,3.51-12.71,1.12-25,.6-37.3.36a6.25,6.25,0,0,1-2.72-1.17c-.94-.94-1.53-1.64-1.57-2.46-.51-10.21-1.31-20.44.74-31a6.73,6.73,0,0,1,5.28-2.22c11.41,0,22.83-.44,34.66.35,3.1.18,5,1.78,6.94,3.38,10.26,8.47,23.39,4.15,26.68-8.75.49-1.91.36-4,2-5.91,2.91-.2,3.44,2,4.14,3.75a237.74,237.74,0,0,1,15.31,62.9c1.05,10.16.85,20.3.87,30.45.06,45.16-12.57,86.77-35.91,125.18-22.26,36.64-52.34,65.35-89.68,86.43-2.57,1.45-5,3.4-8.67,2.35C356,483,356,480.82,356,478.65c-.05-5,.12-10-.08-15-.22-5.41-3-8.36-7.8-8.52-4.59-.15-7.2,2.38-8.13,7.62-1.51,8.61-1,17.26-.59,25.9a17.88,17.88,0,0,1-.09,4.87,6.26,6.26,0,0,1-4.07,3.92,177.13,177.13,0,0,1-25,8.28,6.86,6.86,0,0,1-5.66-.59c-1.83-2.32-1.61-4.7-1.62-7,0-10.3,0-20.6,0-30.91a35.8,35.8,0,0,0-.17-5c-.63-4.37-3.51-7-7.68-7s-7.13,2.52-7.8,6.85a35.65,35.65,0,0,0-.2,5.47c0,11.47,0,22.93,0,34.4,0,2,.17,4-.8,6.31-2.49,4.07-6.56,1.87-9.91,3.47-8,.25-15.72.25-23.88.25-2.6-1.88-2.53-4.41-2.53-6.92,0-12.65,0-25.29,0-37.94a25.92,25.92,0,0,0-.36-6,7.78,7.78,0,0,0-15.13.1,26.51,26.51,0,0,0-.34,6c0,12.48,0,25,0,37.45C234.08,507,234.39,509.4,232.33,511.67Z"/><path class="cls-2" d="M232.5,512c-.48-16-.52-31.93-.49-47.9,0-7.16,3.51-11.07,9.81-11.16,6.63-.08,10.24,3.8,10.25,11.22,0,15.63,0,31.27,0,47.37C245.68,512,239.33,512,232.5,512Z"/><path class="cls-3" d="M355.57,0c-.76.87.41,1.51.84,1.79C369,10.15,370.08,22.61,359,33.6c-5.41,5.51-14.06,5.94-22.08,1.19-7.42-4.09-10.09-10.53-9.55-18,.53-7.23,3.66-13.33,11.33-16.5C344.39,0,349.74,0,355.57,0Z"/><path class="cls-3" d="M285.73.26c6-.26,11.68-.26,17.84-.26,12.31,7.19,15.34,19.19,7.76,30.25a40.16,40.16,0,0,1-6.12,5c-6.66,3.45-13,4.05-19.78.32a23.09,23.09,0,0,1-9.81-12C272.51,13.9,276.39,5,285.73.26Z"/><path class="cls-4" d="M223.79,22.38c-2.35-6,1.81-15.87,6.66-19.06,1.25-.82,2.44-1.52,2.9-3.06C238.72,0,244.41,0,250.57,0c10,5.79,13.49,12.66,11.25,22a24.79,24.79,0,0,1-9.46,13.18c-6.69,3.91-13.09,3.69-19.91.35C227.84,32.12,223.33,29.07,223.79,22.38Z"/><path class="cls-5" d="M360.76,332.17c13.9-10.12,27.43-20.07,41.24-29.62,7-4.85,14.88-6.08,22.6-1.53,6.71,4,9.86,10.21,9.4,18a20.47,20.47,0,0,1-6.25,13.82c-34.82,33.41-71.65,64.19-114.74,86.7-13.23,6.92-27.34,8.73-42,9-26.17.5-52.28.4-78.12-4.56-3.09-.59-6.13-1.5-9.58-2.4-.39-.13-.81-.06-1-.17a14.55,14.55,0,0,0-1.8.07c-4.77-1.35-8.2-4.35-11.58-7.24-13.6-11.61-26.38-24-34-40.54-11.16-24.11-11.23-48.17,1.1-72.38,6.54-6.46,14.82-8.84,22.78-11.41,25.08-8.08,49.09-3.54,72.76,7.34,7.18,3,13.28,7.33,20.86,9.4,9,3.14,18,3.63,26.91,5.23a48.2,48.2,0,0,1,5.68,1.18,92.61,92.61,0,0,1,19.63,3.16,74.18,74.18,0,0,1,22.52,5.31,6.37,6.37,0,0,1,4.11,3.81c-2.46,3.56-6,2.45-9.2,2.55-5,.15-9.07,1.81-12.15,5.73-5.71,7.26-2.76,16.56,6,19.62,2.55.89,5.83.21,7.53,3.6-1.14,3.67-4.24,3.84-6.89,4.5-16.07,4-32,2-48-.86-15.07-2.73-30-6.32-45.23-8-4.58-.52-7.81,1-9.06,4.39-1.55,4.17.88,8.18,5.89,9q22.17,3.75,44.21,8.13a187.05,187.05,0,0,0,26.68,3.68c17.26.9,34-1.62,48.85-11.2a40.86,40.86,0,0,0,18.22-26.46C358.72,337.48,358.81,334.72,360.76,332.17Z"/><path class="cls-6" d="M136.84,301.92c-4.44,11.64-7.89,23.16-8.06,35.84-.25,19.27,6.25,35.89,17.56,50.82a139.1,139.1,0,0,0,30.45,29.26,8.62,8.62,0,0,1,3.31,3.36c-9.26,3.91-17.36,9.83-26,14.83-17.08,9.94-34,20.12-51.25,30.49-6.64-3.3-12.07-8.25-17.65-12.92a235.3,235.3,0,0,1-45.06-51.05c-2.83-4.29-6.06-8.4-7.81-13.65-.35-2.84,1.92-2.73,3.2-3.25,27.72-11.2,49.23-30,66.69-53.93a115.2,115.2,0,0,1,27.57-27.28C131.86,303,133.75,301.22,136.84,301.92Z"/><path class="cls-7" d="M397.36,186.85c-1.23,10.93-.71,21.52-.42,32.54,3.82,7,2.65,13.55-.51,20.43-5.07,20.51-17.4,32.79-38.16,36.86a6.73,6.73,0,0,1-5.52,2.37c-4.89,0-9.77.25-15.13-.19-10.59.45-20.7.3-31.26,0-5.91.2-11.32.8-15.67-3.88-6.43-6.92-6.3-18.08.64-24.51,1.08-1,2.23-1.94,3.61-3.31,2.69-1.53,5.23-1.25,7.7-1.25,16.13-.05,32.25,0,48.37,0,11.12,0,14.86-3.8,14.91-15.06.07-14.13,0-28.26,0-42.39a28.26,28.26,0,0,1,.57-7.84c1.17-2.39,2.7-2.2,4.36-1.37A49.73,49.73,0,0,1,375,182c6.28,4,10,3.84,16-.42,1.92-1.36,3.51-3.82,6.76-2.12C399.2,182.09,399.26,184.35,397.36,186.85Z"/><path class="cls-8" d="M360.71,331.91c-.08,18.65-9.37,31.8-25.75,39.82-15,7.31-30.92,9.08-47.56,7.55-21.73-2-42.75-7.83-64.28-10.75-1-.14-2-.36-2.94-.5-5.44-.73-9.39-5-8.77-9.52.77-5.65,5.69-9.12,11.56-8.3,17.1,2.4,33.93,6.27,50.93,9.2,16.31,2.82,32.62,4,48.86-2.21,1.38-2.46,3.57-3.32,5.56-4.36,3.67-1.93,6.51-4.85,9.79-7.8,5.21-2.91,9.32-6.77,14.09-9.68,1.67-1,3.08-2.54,5.6-2.49C358.9,332.59,359.65,332.28,360.71,331.91Z"/><path class="cls-9" d="M358.14,332.43A116,116,0,0,1,339.34,346a2.08,2.08,0,0,1-1.37-2.11c.75-5-1.26-9.44-2.44-14.52-1.25-16.2-.41-32-.51-47.72a5.44,5.44,0,0,1,2-4.37c6.94-.31,13.51-.31,20.55-.31C358,295.29,358.09,313.63,358.14,332.43Z"/><path class="cls-2" d="M305,504.4c-6.2,2.63-12.64,3.64-19.51,4.52-.44-15.38-.54-30.71-.47-46,0-6.26,3.93-9.95,10-9.93s9.94,3.72,10,10C305.12,476.61,305,490.28,305,504.4Z"/><path class="cls-10" d="M468,164.86c1.92,2.7,3.89,5,4,8.67-.15,14.46-8.12,22.68-20.38,21.53-5.54-.53-9.43-3.78-13.29-7.79-5.26-4.77-5.87-11.86-1.77-20.07,6.3-9.09,14.71-12.12,23.77-8.93,2.39.85,4.54,2,5.94,4.73.14.4.19.52.25.54C467.56,163.3,467.48,164.19,468,164.86Z"/><path class="cls-10" d="M437.76,220.27c4.59-4.62,9-8.42,15.67-8.41a18.11,18.11,0,1,1-12,31.3c-1-.9-1.87-1.87-3.08-3A13.92,13.92,0,0,1,437.76,220.27Z"/><path class="cls-11" d="M437.63,219.87a25.94,25.94,0,0,0,.39,19.72c-13.6.46-27.28.53-41.42.61-.24-6.47.84-12.91.45-19.89C410.44,219.81,423.8,219.79,437.63,219.87Z"/><path class="cls-11" d="M437.79,166.66c-2,6.79-3.07,13.2.23,20-13.28.47-26.64.54-40.47.58a50.91,50.91,0,0,1-.77-8c-2.8-4.19-2.17-8.08-.3-12.41a8,8,0,0,1,5.48-1.88q15.42-.12,30.83,0A6.67,6.67,0,0,1,437.79,166.66Z"/><path class="cls-12" d="M358,484.38A100.5,100.5,0,0,1,338.42,494a113.7,113.7,0,0,1-.48-32.12c.71-5.87,4.29-9.1,10.27-8.95s9.68,3.74,9.79,9.61C358.14,469.67,358,476.8,358,484.38Z"/><path class="cls-6" d="M182.34,421.47c0-.26.23-.27.52-.06C182.93,421.5,182.51,421.59,182.34,421.47Z"/><path class="cls-1" d="M137.36,301.91A94,94,0,0,0,108,327.36c-9,11.93-18.21,23.7-29.42,33.74-13.41,12-28.71,20.79-45.76,27.4-5.61-5.84-8.32-13.23-11.5-20.2A224.77,224.77,0,0,1,4,312.51C5,310.35,6.8,310,8.67,310c11.59,0,23.19-.6,35.23.38,2.1-.33,3.77-.37,5.43-.49,6.29-.48,9.28-4.26,9-10.68-.79-17.81-.31-35.64-.26-53.47,0-5.34,2.34-7.48,7.73-7.72,6-.26,12,.09,18-.19a7.91,7.91,0,0,0,7.09-4.73c1.43-2.89.66-5.49-1-8-1.45-2.17-3.62-2.88-6-2.92-11.17-.17-22.33-.28-33.49,0-5.73.16-8.13,3.15-8.18,9.71-.12,17.16,0,34.32-.06,51.48,0,2.64.3,5.37-1.74,8.05a101,101,0,0,1-38.74,0A17.3,17.3,0,0,1,0,283.32c.09-8.48,0-17,.05-25.45.24-24.15,4.83-47.51,12.94-70.6,2.25-2.52,5-2.35,7.63-2.35q28.92,0,57.86,0c1.33,0,2.66,0,4,0,5.74-.24,9-3.07,9.12-7.76.06-4.47-3.47-7.82-9.11-7.91-17.79-.28-35.58,0-53.38-.14-2.61,0-5.37.46-7.89-1.85a174.66,174.66,0,0,1,17.46-33.08,15.72,15.72,0,0,1,7.13-1.2c10.5,0,21,0,31.5,0a27.28,27.28,0,0,0,7.89-1c4.38-1.31,6.75-4.31,6.48-8.28s-3.13-6.79-7.58-7.38a73.23,73.23,0,0,0-9.49-.2c-5,0-10,0-15,0-2.16,0-4.36.07-6.37-1.87a217.9,217.9,0,0,1,31.09-33,252.94,252.94,0,0,1,62.85-39.4,245.83,245.83,0,0,1,53-16.24c7.6-1.43,15.33-2.15,23.36-3.37a33.76,33.76,0,0,0,8.35,11.47,8.81,8.81,0,0,1,2.24,6.22c-.08,11.94.28,23.87-.33,36.23-1,3.33-3.37,4.47-5.89,5.44-13.72,5.26-23.16,14.56-27.31,28.88a7.36,7.36,0,0,1-3.24,4.72c-3.1,1.25-5.95,1-8.75,1-11.44-.09-22.88.28-34.72-.3-3.62-.41-5.67-2.75-8.13-4.42-5.52-3.74-11.35-4.63-17.38-1.25A15.32,15.32,0,0,0,120,124.41c0,6.75,3.5,11.5,9.24,14.24a15.07,15.07,0,0,0,16.06-1.43c2.27-1.67,4.31-3.73,7.81-3.87,13.69-.86,27-.38,40.25-.34a7.27,7.27,0,0,1,3.71,1.29c.94.94,1.54,1.63,1.58,2.45.5,9.9,1.31,19.8-.74,30.07a6.75,6.75,0,0,1-5.28,2.21c-12.72,0-25.45.42-38.58-.33-4.3-.2-6.48-3.33-9.4-5.15-5.62-3.5-11.32-3.65-17-.18a15.62,15.62,0,0,0-7.5,16.68,15.17,15.17,0,0,0,11.6,12.45,15.35,15.35,0,0,0,14.54-3.13c1.88-1.61,3.64-3.48,6.73-3.87,14-1.14,27.66-.58,41.29-.36a6.22,6.22,0,0,1,2.72,1.16c.94.94,1.54,1.63,1.58,2.45.52,10.23,1.32,20.46-.74,31.07a6.75,6.75,0,0,1-5.28,2.21c-12.72,0-25.45.42-38.58-.33-3.31-.18-5.27-2-7.34-3.71-7.17-5.88-16.17-5.44-22.44,1.06a15.63,15.63,0,0,0-.44,21.3c5.91,6.82,14.9,7.65,22.35,2,2-1.5,3.7-3.41,6.75-3.86a329.23,329.23,0,0,1,43.41,0c3,1,3.68,3.26,4.35,5.47,4.27,14,13.39,23.31,26.92,28.53,2.16.84,4.4,1.6,5.74,4.27.71,7.52,2,14.68-1.16,21.91-9.71-3.21-19.06-6.48-28.77-8.73-21.24-4.91-41.14-1.21-60.23,8.57C141.3,299.51,139.47,300.61,137.36,301.91Z"/><path class="cls-13" d="M20.66,167.05c20.91-.19,41.52-.15,62.13-.13,4.29,0,7.8,1.36,9.95,5.35,2.05,3.78,1.51,7.36-.76,10.82-2,3.09-5,4.06-8.59,4-23.1-.06-46.21-.07-69.77-.15C14.38,180,18.24,173.93,20.66,167.05Z"/><path class="cls-14" d="M52.72,114c9.76-.16,19.23-.11,28.7-.05,7.92,0,12.32,3.45,12.59,9.72.26,6.06-3.69,10.64-11.08,10.9a392.93,392.93,0,0,1-43.64-.4C42.25,126.55,48.2,121,52.72,114Z"/><path class="cls-12" d="M1.18,291.54c12.66-.47,25.26-.51,38.31-.59a3.19,3.19,0,0,1,2.3,3.22c-.33,6,1.38,11.51,3.53,17.25-13.62.46-27,.55-40.93.66A74,74,0,0,1,1.18,291.54Z"/><path class="cls-15" d="M358.42,49.76c15.38,7.12,29,16.42,41.78,26.95,5.22,4.3,10.33,8.76,15.33,13.33,7.47,6.84,14,14.6,20.54,22.72-.49,3.08-2.78,3.23-4.93,3.24-11,.06-22,.42-33.38-.34-3.14-1.09-4-3.48-4.74-5.89-4.89-15.37-15.1-25.15-30.73-29.25-1.93-.51-3.89-1-5.4-3.15-1.7-8.25-.81-16.17-.75-24.07A4.22,4.22,0,0,1,358.42,49.76Z"/><path class="cls-16" d="M438.38,166.88c-13.68.11-27.08,0-40.95,0-1.31-.59-2.06-1.41-2.09-2.38-.34-9.65-1.35-19.33.84-29.35a7.4,7.4,0,0,1,5.83-2.18c11.28,0,22.57-.29,34.28.27,1.1.22.31,0,.92.2,6.67,2.63,12.77,6.53,19.67,9.29,3.81,6.72,7.65,13,9.74,20.35C454.64,156.55,447.88,157.36,438.38,166.88Z"/><path class="cls-17" d="M457.34,143c-2.22-1.39-4.49-.6-6.56-.91-5-.76-8.65-3.8-12.25-7.55-6.1-4.78-6.15-15.3,0-21.27,5.57-9.53,21.73-9.36,28.43-2.76,8.43,8.29,7.68,27.27-7.55,31.54A20.11,20.11,0,0,0,457.34,143Z"/><path class="cls-18" d="M358.93,49.17c-1.76,9.46-.34,18.57-.79,28.09-.49,1.4-1.36,1.75-2.81,1.94-4.37-.54-8.27.09-12.17-.12-2.12-.12-4.26,0-6.47-1.66a95.12,95.12,0,0,1-.14-38,33,33,0,0,0,.42-5.88c6.84,3.81,13.94,3.08,21.49.42C358.9,38.85,358.94,43.79,358.93,49.17Z"/><path class="cls-19" d="M438.54,113c-3,6.75-4,13.59-.36,21-13.37.43-26.84.51-40.78.59-.83-.34-1.38-.6-1.46-1.09-1-6.29-2.48-12.56-.18-19.23,13.55-.35,26.72-.42,40.19-.81A7.21,7.21,0,0,1,438.54,113Z"/><path class="cls-16" d="M468.16,164.75c-.4,0-.89-.29-1.47-.9C467.47,163.21,467.82,163.71,468.16,164.75Z"/><path class="cls-4" d="M232.25,276.37c-9.5-3.11-17.76-7.31-24.14-14.71a45.79,45.79,0,0,1-10.19-21c-4.79-6.62-3.44-13.33-1.27-20.48.34-10.93.38-21.46.35-32.43-3.28-6.9-2.8-13.47-.35-20.49.38-10.78.45-21.16.48-32-3.18-5-3.09-16.1.45-21,4.19-19,15.69-30.53,34-36,6.3-4.13,12.95-3.32,20-2.8,8.9.93,17.37.36,25.82.55,4.15.09,5.51-2,5.49-5.82,0-9.63-.06-19.25,0-28.87,0-2.3-.29-4.69,1.65-7,6.75,2.5,13.16,2.65,20-.23,2.11,1.07,2.47,2.84,2.47,4.72,0,12.09.47,24.19-.44,36.69-1.15,2.76-3.26,3.14-5.43,3.46a13.67,13.67,0,0,0-10.33,19.19c.95,2.09,2.54,3.89,2.84,6.27a2.8,2.8,0,0,1-1.08,2.52c-2.7,1.32-5.21,1.24-7.7,1.24-14.32,0-28.63-.06-43,0-9.65.06-13.79,4.08-13.81,13.6q-.1,55.17,0,110.35c0,9.82,4.09,13.77,14.09,13.82,14.65.06,29.3,0,43.94,0,2.32,0,4.68-.24,7.36.79a3.78,3.78,0,0,1,1.45,1.14c-.35,2.42-2.08,3.57-3.36,5.06-6.06,7-4.68,18,2.94,23,3,2,6.47.62,10.15,1.09a5.69,5.69,0,0,1,2.36,5q.14,15.44,0,30.86a6.3,6.3,0,0,1-1.55,4.58c-6.9-.65-13.48-1.68-20.49-2.82-2.15-2-2.08-4.35-2.09-6.68,0-7.78-.09-15.57,0-23.35,0-4.07-1.69-5.56-5.67-5.55-8.11,0-16.22.33-24.79-.23a115.69,115.69,0,0,1-14.13.14A8.75,8.75,0,0,1,232.25,276.37Z"/><path class="cls-20" d="M284.78,33.68c.11,13.24-.07,26.21,0,39.18,0,3.35-.74,4.71-4.38,4.59-9.14-.3-18.29-.22-27.82-.39A6.08,6.08,0,0,1,250,71.67q-.14-16.15,0-32.31a7.64,7.64,0,0,1,1.76-5c3.65-3.66,6.73-7.1,8.26-12,5.47-.61,10.63,1.37,16.41.77C278.94,26.88,281.25,30.54,284.78,33.68Z"/><path class="cls-15" d="M305.46,77.37c-.31-14.43-.31-28.47-.4-43a9.45,9.45,0,0,1,4.64-4.46c9,2.94,17.73,6,26.8,9,1.74,9.59.63,19.19,1,28.75.1,2.81,0,5.63,0,8.92A4.21,4.21,0,0,1,333.6,79q-12.32.34-24.64,0A5.26,5.26,0,0,1,305.46,77.37Z"/><path class="cls-21" d="M251.66,34c.46,14,.53,28,.58,42.49-6.49.81-13,1.15-19.86,1.49-.46-14.38-.48-28.75-.4-43.59C238.45,36.26,244.85,37.34,251.66,34Z"/><path class="cls-16" d="M305.59,317.91c-.4-13.36-.4-26.64-.4-40.38,10.39-.54,20.79-.62,31.67-.64.51,17.6.52,35.14.47,53.19-3.09.82-4.77-1-6.23-3.68C323.47,320.88,314.57,319.91,305.59,317.91Z"/><path class="cls-22" d="M251.89,277.44c10.13-.45,19.89-.44,29.64-.68,3.35-.08,3.23,1.84,3.21,4.13-.05,10.93-.06,21.85-.11,33.21-10.72-1.21-21.58-1.92-32.27-5.45-.63-.73-1.29-1.24-1.37-1.79C249.55,297.14,248.6,287.43,251.89,277.44Z"/><path class="cls-23" d="M330.58,326c3,.44,4.38,2.5,6.42,4.28,3.37,4.84,3.75,9.75,2,15.32-3.89,5.77-9.19,9.07-15.67,11.26-1.43-1-2.81-.77-4.12-.89-8.92-.86-14.35-6.35-14.21-14.31A15.8,15.8,0,0,1,320.12,326C323.44,325.86,326.78,326,330.58,326Z"/><path class="cls-24" d="M251.78,277.05c.47,10.16.45,20.3.35,30.94-7.3-1.12-13.3-5.38-20.06-8.81-.25-7.56-.23-14.87-.2-22.65C238.31,277.35,244.82,276.84,251.78,277.05Z"/><path class="cls-4" d="M368.48,178.62c-.39,18.14-.41,36-.45,53.78,0,10.81-4.77,15.58-15.44,15.6-18.82,0-37.64.08-56.9.19-.44.06-.54-.06-.59-.12-7.69-6.06-9-17.25-2.93-25.89a25,25,0,0,1,6.1-6.3c2.4-.73,3.76.8,5.39,1.51,6,2.62,10.71-.66,10.35-7.19a21,21,0,0,0-1.62-6.23c-7.46-19.71-14.79-39.46-22.23-59.18-1.72-4.54-4.67-7.92-8.09-11.61-2.84-11.31.94-20.69,10.29-26.35a14.07,14.07,0,0,0,2.21-1.92,8.68,8.68,0,0,1,4.75-1c17.84.1,35.69-.47,54,.23,10.47.15,16.54,5.76,16.7,15.56.29,18,.13,35.9.06,53.85A6.85,6.85,0,0,1,368.48,178.62Z"/><path class="cls-25" d="M368.39,179.12c-.31-19.46-.32-38.74-.38-58,0-9.26-3.71-13.51-13.37-15.24-5.61-1.5-7.41-5.65-8.22-10.38-1.08-6.37,2.52-14.15,8.24-17.47,1.17-.13,1.94-.17,3.09-.27C378.5,81.25,391,93.22,396,113.55c.35,6.94.61,13.52.88,20.53-.66,10.92-.28,21.4-.07,32.34,0,4.11,0,7.79-.09,11.9a11.36,11.36,0,0,1-1.79,2.19c-8,8.17-15,8.51-23.76,1.13C370.33,180.9,369.52,180.08,368.39,179.12Z"/><path class="cls-13" d="M45.56,311.84C38.88,306.31,40,298.93,40,291.38c0-20.12,0-39.77,0-59.41,0-8.78,3.29-12,12.06-12.07,10.32,0,20.64-.05,31,0,6.73,0,11.09,4.18,11,10.23-.1,5.85-4.38,9.84-10.84,9.92-6.16.08-12.33.12-18.49,0-3.15-.07-4.57,1-4.5,4.32.35,18.47-.69,36.95.56,55.4C61.29,308,56.16,312.3,45.56,311.84Z"/><path class="cls-26" d="M152.28,186.73c-4.79,4.65-9.35,8.6-16.22,8.45a18.12,18.12,0,1,1,12.11-31.6c1.11,1,2.13,2.1,3.48,3.32A13.89,13.89,0,0,1,152.28,186.73Z"/><path class="cls-27" d="M152.28,239.66c-4.46,4.2-8.55,8.05-14.73,8.39-8.69.47-16.11-4.45-18.75-12.63a18.09,18.09,0,0,1,29.75-18.57c1,.9,1.9,1.85,3.12,3A13.94,13.94,0,0,1,152.28,239.66Z"/><path class="cls-26" d="M152.28,134c-4.6,4.26-8.86,8.09-15.28,8.24-8.55.19-15.62-4.58-18.22-12.64A18.12,18.12,0,0,1,148.51,111c1,.9,1.88,1.87,3.11,3C157.25,119.34,157.57,127.73,152.28,134Z"/><path class="cls-28" d="M152.34,134.32c2.15-6.54,2.69-13-.37-19.81,15-.47,30-.55,45.47-.66-1,6.6-.2,13.32-.34,20.44C182.33,134.65,167.57,134.55,152.34,134.32Z"/><path class="cls-21" d="M152.4,240c2.12-6.46,2.6-12.85-.38-19.65,14.61-.48,29.3-.56,44.46-.64,1,6.54-.23,13.16,1.37,20.09C182.87,240.22,167.87,240.18,152.4,240Z"/><path class="cls-21" d="M152.41,187.14c2-6.49,2.65-12.88-.39-19.69,14.62-.45,29.32-.53,44.48-.61.48,6.49.49,13,.46,20C182.24,187.27,167.56,187.26,152.41,187.14Z"/><path class="cls-3" d="M354.72,77.7a56.43,56.43,0,0,1-3.32,5.57c-5.24,9-4.63,14.22,2.66,22.29-19.53.31-39.26.35-59.45.38-.66.19-.87.38-1.25.2a16.15,16.15,0,0,0-1.3-2.56c-6.16-8.16-5.93-13-.77-21.72,3.31-5.61,8.07-4.77,13.4-4.87,10.89.78,21.34.17,32.27.2C343.1,77.2,348.76,76.56,354.72,77.7Z"/><path class="cls-24" d="M292.71,105.83a3.91,3.91,0,0,1,1.2.06,22.64,22.64,0,0,1-3.39,4c-6.67,5.93-8.31,13.53-7.5,22.43a2.88,2.88,0,0,1-2.79,2.26c-5.56.3-8.08,4-9.83,8.59-8,21-16,41.94-23.86,63-.8,2.15-1.85,4.39-.92,6.77,1.09,2.77,2.92,4.91,6.09,5.23,3.36.33,5.66-1.42,7.37-4.16s2-6.47,5.72-8.31c9.84-1.38,19.3-1,29.2-.27,4.8,2,6,5.51,5.41,10.26a8.73,8.73,0,0,1-2.69,4.06c-7.87,8.44-8.64,15.9-2.66,25.75a11.52,11.52,0,0,1,.94,2.12c-18.11.36-36.26.37-54.4.35-9.44,0-14.56-5.06-14.57-14.39q0-56.7,0-113.39c0-9,5.2-14.19,14.25-14.21C257.6,106,274.91,105.94,292.71,105.83Z"/><path class="cls-29" d="M264.39,206.8c-1.36,2.85-2.27,5.53-3.49,8.06-2.33,4.84-7.47,6.86-12.08,4.93a9,9,0,0,1-5-11.58q12.93-34.49,26.19-68.86c2.07-5.37,6.54-7.19,12.55-6.51a13,13,0,0,1,8.06,8c8.17,21.89,16.49,43.73,24.65,65.63,2.6,7,.09,12.41-6.07,13.75-4,.87-7.15-.56-9.83-4-1.41-3.11-2.55-6-4-9.17-4.77-4.78-5.38-11.13-7.87-17-2.45-6.64-4.91-12.89-7.54-20-3,6.74-4.81,13-7.5,19.19-1.43,4.61-3.17,8.73-4.74,12.9C267.13,204,266.49,205.69,264.39,206.8Z"/><path class="cls-30" d="M345,183c0,9.16,0,17.82,0,26.47-.05,6.88-3.8,11.19-9.48,11.09-5.39-.11-9.15-4.39-9.18-10.95q-.12-33,0-65.93c0-7.07,3.61-11,9.53-10.93S345,136.85,345,144C345,156.86,345,169.68,345,183Z"/><path class="cls-31" d="M288.37,188.32c2.39,6.15,5.31,11.7,6.74,18.18-10,.43-20.05.48-30.56.53,1.79-5.89,4.05-11.78,6.47-18C276.67,185.8,282.3,186.48,288.37,188.32Z"/><path class="cls-32" d="M288.64,188.28c-5.43.35-11,.39-17,.41,2.25-7.44,5-14.86,7.66-22.27l1.15-.07C283.13,173.55,285.82,180.76,288.64,188.28Z"/><path d="M649,184V304H609V224H569v80H529V184h20V164h80v20Zm-40,0H569v20h40Z"/><path d="M749,284v20H669V284h20V184H669V164h80v20H729V284Z"/><path d="M889,204h60v20h20v60H949v20H869V284H849V264h40v20h40V224H869V204H849V184h20V164H969v20H889Z"/><path d="M1109,284h-20v20h-80V284H989V164h40V284h40V164h40Z"/><path d="M1249,304h-40V224h-40v80h-40V164h40v20h40V164h40Z"/><path d="M1369,204v20h20v80h-40V224h-40v80h-40V164h100v20h20v20Zm-20-20h-40v20h40Z"/><path d="M1529,204h-20v20h-20v20h-20v20h-20v20h80v20H1409V264h20V244h20V224h20V204h20V184h-80V164h120Z"/></g></g></svg>